<?xml version="1.0" encoding="UTF-8" standalone="no"?>
<svg
   xmlns:osb="http://www.openswatchbook.org/uri/2009/osb"
   xmlns:dc="http://purl.org/dc/elements/1.1/"
   xmlns:cc="http://creativecommons.org/ns#"
   xmlns:rdf="http://www.w3.org/1999/02/22-rdf-syntax-ns#"
   xmlns:svg="http://www.w3.org/2000/svg"
   xmlns="http://www.w3.org/2000/svg"
   xmlns:xlink="http://www.w3.org/1999/xlink"
   xmlns:sodipodi="http://sodipodi.sourceforge.net/DTD/sodipodi-0.dtd"
   xmlns:inkscape="http://www.inkscape.org/namespaces/inkscape"
   width="500"
   height="500"
   viewBox="0 0 500 500"
   version="1.1"
   id="SVGRoot"
   inkscape:version="1.0.2 (e86c870879, 2021-01-15, custom)"
   sodipodi:docname="logo.svg"
   inkscape:export-filename="C:\Users\Christa\Documents\100DaysOfCode\100DaysOfCode_Projects\CommunicationBoard1\assets\girl2.png"
   inkscape:export-xdpi="102.98851"
   inkscape:export-ydpi="102.98851">
  <defs
     id="defs2">
    <linearGradient
       inkscape:collect="always"
       id="linearGradient949">
      <stop
         style="stop-color:#05a1a1;stop-opacity:1;"
         offset="0"
         id="stop945" />
      <stop
         style="stop-color:#178889;stop-opacity:1"
         offset="1"
         id="stop947" />
    </linearGradient>
    <rect
       x="43.361343"
       y="53.827877"
       width="249.70152"
       height="255.6824"
       id="rect835" />
    <linearGradient
       id="linearGradient1518"
       osb:paint="gradient">
      <stop
         style="stop-color:#ff2a2a;stop-opacity:1;"
         offset="0"
         id="stop1514" />
      <stop
         style="stop-color:#ff2a2a;stop-opacity:0;"
         offset="1"
         id="stop1516" />
    </linearGradient>
    <rect
       x="43.361343"
       y="53.827877"
       width="249.70152"
       height="255.6824"
       id="rect843" />
    <rect
       x="43.361343"
       y="53.827877"
       width="249.70152"
       height="255.6824"
       id="rect849" />
    <rect
       x="43.361343"
       y="53.827877"
       width="249.70152"
       height="255.6824"
       id="rect855" />
    <rect
       x="43.361343"
       y="53.827877"
       width="249.70152"
       height="255.6824"
       id="rect877" />
    <rect
       x="43.361343"
       y="53.827877"
       width="249.70152"
       height="255.6824"
       id="rect879" />
    <rect
       x="43.361343"
       y="53.827877"
       width="249.70152"
       height="255.6824"
       id="rect895" />
    <rect
       x="43.361343"
       y="53.827877"
       width="249.70152"
       height="255.6824"
       id="rect897" />
    <rect
       x="43.361343"
       y="53.827877"
       width="249.70152"
       height="255.6824"
       id="rect912" />
    <rect
       x="43.361343"
       y="53.827877"
       width="249.70152"
       height="255.6824"
       id="rect918" />
    <rect
       x="43.361343"
       y="53.827877"
       width="249.70152"
       height="255.6824"
       id="rect924" />
    <rect
       x="43.361343"
       y="53.827877"
       width="249.70152"
       height="255.6824"
       id="rect930" />
    <rect
       x="43.361343"
       y="53.827877"
       width="249.70152"
       height="255.6824"
       id="rect936" />
    <linearGradient
       inkscape:collect="always"
       xlink:href="#linearGradient949"
       id="linearGradient951"
       x1="0"
       y1="0"
       x2="500"
       y2="500"
       gradientUnits="userSpaceOnUse" />
    <rect
       x="43.361343"
       y="53.827877"
       width="249.70152"
       height="255.6824"
       id="rect1174" />
    <filter
       inkscape:collect="always"
       style="color-interpolation-filters:sRGB"
       id="filter1248"
       x="-0.12486088"
       width="1.2497218"
       y="-0.095151059"
       height="1.1903021">
      <feGaussianBlur
         inkscape:collect="always"
         stdDeviation="10.140369"
         id="feGaussianBlur1250" />
    </filter>
    <filter
       inkscape:collect="always"
       style="color-interpolation-filters:sRGB"
       id="filter1252"
       x="-0.12206684"
       width="1.2441337"
       y="-0.096840248"
       height="1.1936805">
      <feGaussianBlur
         inkscape:collect="always"
         stdDeviation="5.5645312"
         id="feGaussianBlur1254" />
    </filter>
  </defs>
  <sodipodi:namedview
     id="base"
     pagecolor="#ffffff"
     bordercolor="#666666"
     borderopacity="1.0"
     inkscape:pageopacity="0.0"
     inkscape:pageshadow="2"
     inkscape:zoom="0.24748737"
     inkscape:cx="-410.17295"
     inkscape:cy="-146.36692"
     inkscape:document-units="px"
     inkscape:current-layer="layer1"
     inkscape:document-rotation="0"
     showgrid="false"
     units="px"
     inkscape:window-width="1346"
     inkscape:window-height="728"
     inkscape:window-x="-10"
     inkscape:window-y="0"
     inkscape:window-maximized="0"
     inkscape:object-paths="true"
     inkscape:snap-smooth-nodes="true" />
  <metadata
     id="metadata5">
    <rdf:RDF>
      <cc:Work
         rdf:about="">
        <dc:format>image/svg+xml</dc:format>
        <dc:type
           rdf:resource="http://purl.org/dc/dcmitype/StillImage" />
        <dc:title></dc:title>
      </cc:Work>
    </rdf:RDF>
  </metadata>
  <g
     inkscape:label="Layer 1"
     inkscape:groupmode="layer"
     id="layer1"
     style="display:inline">
    <g
       id="g1263"
       inkscape:export-filename="C:\Users\Christa\Documents\1_Github\christadejesus.com\public\favicon.png"
       inkscape:export-xdpi="12.288"
       inkscape:export-ydpi="12.288">
      <rect
         style="fill:url(#linearGradient951);fill-opacity:1;fill-rule:evenodd;stroke-width:7"
         id="rect938"
         width="500"
         height="500"
         x="0"
         y="0" />
      <text
         xml:space="preserve"
         id="text1172"
         style="font-style:normal;font-variant:normal;font-weight:bold;font-stretch:normal;font-size:192px;line-height:1.25;font-family:'Century Gothic';-inkscape-font-specification:'Century Gothic Bold';text-align:center;white-space:pre;shape-inside:url(#rect1174);opacity:0.5;fill:#1a1a1a;filter:url(#filter1252)"
         transform="matrix(1.854666,0,0,1.854666,46.421592,-32.7486)"><tspan
           x="100.99316"
           y="228.14005"><tspan
             style="font-style:normal;font-variant:normal;font-weight:bold;font-stretch:normal;font-size:192px;font-family:'Century Gothic';-inkscape-font-specification:'Century Gothic Bold';fill:#1a1a1a">D</tspan></tspan></text>
      <text
         xml:space="preserve"
         id="text908"
         style="font-style:normal;font-variant:normal;font-weight:bold;font-stretch:normal;font-size:192px;line-height:1.25;font-family:'Century Gothic';-inkscape-font-specification:'Century Gothic Bold';text-align:center;white-space:pre;shape-inside:url(#rect912);fill:#ffffff"
         transform="matrix(1.854666,0,0,1.854666,38.421592,-44.7486)"><tspan
           x="100.99316"
           y="228.14005"><tspan
             style="font-style:normal;font-variant:normal;font-weight:bold;font-stretch:normal;font-size:192px;font-family:'Century Gothic';-inkscape-font-specification:'Century Gothic Bold';fill:#ffffff">D</tspan></tspan></text>
      <path
         id="path956"
         style="font-style:normal;font-variant:normal;font-weight:bold;font-stretch:normal;font-size:192px;line-height:1.25;font-family:'Century Gothic';-inkscape-font-specification:'Century Gothic Bold';text-align:center;text-anchor:middle;white-space:pre;shape-inside:url(#rect897);opacity:0.5;fill:#1a1a1a;stroke-width:1.85466;filter:url(#filter1248)"
         d="m 194.28911,135.62601 c -33.15216,6.6e-4 -56.45139,2.0865 -69.89772,6.25949 -13.44633,4.17301 -25.907476,11.70759 -37.383216,22.60375 -11.591668,10.89617 -20.633158,24.57432 -27.124498,41.03449 -6.60724,16.57607 -9.910773,34.71703 -9.910773,54.42286 0,27.70407 5.853696,51.93064 17.561276,72.67971 11.707579,20.74908 26.602965,35.70232 44.685951,44.85974 18.08299,9.27333 45.72903,13.90999 82.93826,13.90999 h 49.72653 v -46.8955 h -40.96021 v 0 l -16.06907,-0.0508 c -30.25405,-0.0955 -52.22035,-6.72317 -65.8985,-20.16949 -15.18509,-14.95325 -22.777725,-35.99212 -22.777725,-63.11662 0,-17.61931 3.187805,-32.45664 9.563225,-44.51197 6.37541,-12.05534 14.6055,-20.63316 24.69024,-25.7335 9.96883,-5.10033 26.08124,-7.65049 48.33723,-7.65049 23.86349,-9.1e-4 41.9297,0.004 62.99222,0.005 l 0.12241,-47.64767 z"
         sodipodi:nodetypes="ssccsscsccccscssccccs" />
      <path
         id="path910"
         style="font-style:normal;font-variant:normal;font-weight:bold;font-stretch:normal;font-size:192px;line-height:1.25;font-family:'Century Gothic';-inkscape-font-specification:'Century Gothic Bold';text-align:center;text-anchor:middle;white-space:pre;shape-inside:url(#rect897);fill:#ffffff;stroke-width:1.85466"
         d="m 186.28911,121.62601 c -33.15216,6.6e-4 -56.45139,2.0865 -69.89772,6.25949 -13.44633,4.17301 -25.907476,11.70759 -37.383216,22.60375 -11.591668,10.89617 -20.633158,24.57432 -27.124498,41.03449 -6.60724,16.57607 -9.910773,34.71703 -9.910773,54.42286 0,27.70407 5.853696,51.93064 17.561276,72.67971 11.707579,20.74908 26.602965,35.70232 44.685951,44.85974 18.08299,9.27333 45.72903,13.90999 82.93826,13.90999 h 49.72653 v -46.8955 h -40.96021 v 0 l -16.06907,-0.0508 c -30.25405,-0.0955 -52.22035,-6.72317 -65.8985,-20.16949 C 98.772045,295.327 91.179415,274.28813 91.179415,247.16363 c 0,-17.61931 3.18781,-32.45664 9.563225,-44.51197 6.37541,-12.05534 14.6055,-20.63316 24.69024,-25.7335 9.96883,-5.10033 26.08124,-7.65049 48.33723,-7.65049 23.86349,-9.1e-4 41.9297,0.004 62.99222,0.005 l 0.12241,-47.64767 z"
         sodipodi:nodetypes="ssccsscsccccscssccccs" />
    </g>
  </g>
</svg>
